<svg width="145" height="202" viewBox="0 0 145 202" fill="none" xmlns="http://www.w3.org/2000/svg">
<path d="M71.2801 6.65102C41.7881 16.068 6.74808 70.964 34.6341 79.943C62.5201 88.922 137.674 -14.5555 71.2801 6.65102Z" fill="#B3F5E9"/>
<path d="M73.762 90.017C54.6725 76.658 15.216 105.53 5.72602 136.555C-3.76398 167.58 -1.50098 181.121 14.34 177.617C30.181 174.113 14.3035 201.853 59.162 200.977C122.234 199.736 170.523 119.327 128.549 87.535C104.605 69.3945 73.762 90.017 73.762 90.017Z" fill="#B3F5E9"/>
<path d="M132.71 38.917C117.525 42.3115 99.969 68.117 120.482 67.387C140.995 66.657 149.646 35.0845 132.71 38.917Z" fill="#B3F5E9"/>
<path d="M14.3417 177.581C30.2192 174.04 14.3052 201.817 59.1637 200.941C87.6702 200.393 113.111 183.676 128.623 162.579C114.023 154.951 94.3497 145.023 94.3497 145.023L51.7542 143.198C51.7542 143.198 10.8377 163.711 0.763672 171.011C2.33317 177.07 6.78617 179.26 14.3417 177.581Z" fill="url(#paint0_linear)"/>
<path d="M32.0425 153.308C31.6045 169.733 35.4735 187.947 38.065 198.276C41.8975 199.663 46.825 200.612 53.249 200.904C48.8325 181.632 46.387 157.469 45.438 146.373C41.934 148.162 37.189 150.607 32.0425 153.308Z" fill="#2B4266"/>
<path d="M33.2468 152.688C32.2248 169.806 36.9333 189.772 39.3058 198.714C42.7003 199.809 46.8978 200.576 52.1538 200.868C47.4453 181.815 45.0363 156.119 44.3063 146.994C41.2403 148.527 37.3713 150.498 33.2468 152.688Z" fill="#F8FBFC"/>
<path d="M0.725342 171.011C2.33134 177.106 6.78434 179.296 14.3398 177.617C14.5588 177.581 14.7778 177.508 14.9968 177.471C14.5588 172.398 14.2303 167.507 14.0113 162.981C8.31734 166.156 3.42634 169.04 0.725342 171.011Z" fill="#2B4266"/>
<path d="M0.725342 170.974C2.25834 176.814 6.45584 179.077 13.4638 177.763C13.0258 172.872 12.7339 168.127 12.5149 163.82C7.44135 166.667 3.20734 169.222 0.725342 170.974Z" fill="url(#paint1_linear)"/>
<path d="M57.4099 157.068C60.0379 172.544 63.2864 189.005 65.6224 200.503C71.8274 199.846 77.8499 198.459 83.6169 196.415C80.0764 172.945 77.0469 149.33 77.0469 149.33L57.4099 157.068Z" fill="#2B4266"/>
<path d="M60.6948 159.367C62.2643 173.237 65.2573 189.516 67.3743 200.32C72.4113 199.663 77.3023 198.532 82.0473 196.999C78.6528 174.697 75.8058 152.615 75.8058 152.615L60.6948 159.367Z" fill="url(#paint2_linear)"/>
<path d="M26.0563 156.447C25.6548 156.666 25.2533 156.885 24.8518 157.068C24.8518 162.47 25.2168 176.194 28.5018 191.998C28.9763 192.509 29.4508 193.02 29.9983 193.531C26.3118 176.413 26.0198 161.448 26.0563 156.447Z" fill="url(#paint3_linear)"/>
<path d="M20.2163 159.586C19.8148 159.805 19.4133 160.024 19.0118 160.243C18.9023 164.258 18.8658 170.39 19.3403 177.763C19.8148 177.982 20.2163 178.237 20.5813 178.529C19.9973 170.426 20.0338 163.674 20.2163 159.586Z" fill="url(#paint4_linear)"/>
<path d="M57.6289 200.941C57.6289 200.977 57.6654 201.05 57.6654 201.087H62.8484C62.8119 200.977 62.8119 200.868 62.7754 200.758C61.5709 200.831 60.3664 200.904 59.1619 200.904C58.6509 200.941 58.1399 200.941 57.6289 200.941Z" fill="#F8FBFC"/>
<path d="M48.6863 149.804C50.4018 161.375 54.0518 184.99 57.6288 200.941C58.1398 200.941 58.6508 200.941 59.1618 200.941C60.3663 200.904 61.5708 200.868 62.7753 200.795C56.9718 177.471 54.3438 145.862 54.3438 145.862L48.6863 149.804Z" fill="#F8FBFC"/>
<path d="M124.935 167.288C125.081 165.134 125.19 162.981 125.263 160.827C121.686 158.966 117.963 157.031 114.35 155.206C113.802 162.251 112.999 171.157 111.941 180.245C116.686 176.303 121.066 171.923 124.935 167.288Z" fill="#2B4266"/>
<path d="M124.095 168.237C124.278 165.645 124.424 163.017 124.46 160.426C121.431 158.856 118.292 157.214 115.226 155.644C114.715 162.141 113.985 170.609 112.963 179.333C117.014 175.902 120.737 172.179 124.095 168.237Z" fill="#F8FBFC"/>
<path d="M90.6249 149.366C90.6249 149.366 88.3619 172.47 85.6609 195.721C91.1724 193.64 96.4649 190.976 101.429 187.873C102.852 178.383 104.458 167.506 105.809 157.104L90.6249 149.366Z" fill="#2B4266"/>
<path d="M91.6103 152.615C91.6103 152.615 89.4934 173.529 86.9749 195.21C91.4278 193.458 95.6983 191.305 99.7498 188.896C101.064 179.625 102.414 168.93 103.217 159.404L91.6103 152.615Z" fill="url(#paint5_linear)"/>
<path d="M107.707 151.812C107.123 159.294 105.918 172.763 104.02 186.158C105.48 185.172 106.904 184.15 108.327 183.092C109.787 172.58 111.101 161.776 112.014 154.002C110.554 153.235 109.094 152.505 107.707 151.812Z" fill="#F8FBFC"/>
<path opacity="0.78" d="M94.3497 145.023L51.7542 143.198C51.7542 143.198 10.8377 163.711 0.763672 171.011C1.31117 173.128 2.18717 174.734 3.42817 175.938C4.77867 175.829 6.45767 176.887 8.17317 178.055C9.92517 178.274 11.9692 178.128 14.3417 177.617C15.6922 177.325 16.8237 177.252 17.7727 177.362C19.6342 174.953 22.4812 171.595 27.8832 168.091C38.6507 161.156 42.4832 157.141 56.9007 158.601C71.3182 160.061 86.1007 154.951 98.5107 154.038C108.694 153.308 114.936 165.755 119.863 172.909C123.039 169.624 125.959 166.193 128.587 162.579C114.023 154.951 94.3497 145.023 94.3497 145.023Z" fill="url(#paint6_linear)"/>
<path opacity="0.78" d="M59.1618 200.941C66.6443 200.795 73.9078 199.517 80.8428 197.364C77.8863 197.619 75.0393 197.656 72.3018 197.327C54.5263 195.247 22.6618 176.632 24.3773 180.537C25.1073 182.216 26.0563 185.976 26.6768 189.589C30.5458 195.575 38.2838 201.342 59.1618 200.941Z" fill="url(#paint7_linear)"/>
<path opacity="0.78" d="M105.663 147.796C103.582 143.051 45.9124 157.286 45.9124 157.286L47.3724 167.397C47.3724 167.397 57.8479 164.367 58.3224 164.367C58.7969 164.367 53.1029 173.967 52.8474 174.332C52.5919 174.697 65.5129 185.647 83.5804 191.414C83.5804 191.414 98.2534 182.106 106.393 174.806L101.538 164.331L109.824 164.221C109.787 164.221 107.707 152.541 105.663 147.796Z" fill="url(#paint8_linear)"/>
<path d="M84.3103 192.692C84.0548 192.984 84.0548 193.458 84.3468 193.714C84.3468 193.714 84.6388 193.969 85.0403 194.334C85.3688 194.663 85.8069 195.028 86.2814 195.466C86.7924 195.283 87.3034 195.064 87.7779 194.882C86.5734 193.75 85.3324 192.655 85.3324 192.655C85.0403 192.363 84.5658 192.363 84.3103 192.692Z" fill="url(#paint9_linear)"/>
<path d="M100.188 158.162C100.37 158.345 105.079 163.272 107.123 169.368C107.123 169.368 95.6985 185.063 83.5805 191.45C83.5805 191.45 61.7535 180.208 52.6285 171.083C52.6285 171.083 55.439 162.688 57.848 158.929C57.848 158.929 49.818 161.009 45.438 165.608C45.438 165.608 43.6495 161.082 42.5545 152.432C42.299 150.278 42.0435 147.869 41.8975 145.168C41.8975 145.168 47.993 138.489 53.9425 134.474C53.9425 134.474 70.3675 131.298 88.873 134.109C89.2015 134.182 99.7135 136.992 107.707 149.183C107.707 149.183 107.999 150.023 108.364 151.337C109.204 154.111 110.591 158.892 111.102 161.958C111.138 161.922 104.933 158.892 100.188 158.162Z" fill="url(#paint10_linear)"/>
<path d="M98.7279 157.834L55.1104 143.051C55.1104 143.051 54.1979 137.832 53.9424 134.401C53.9424 134.401 70.3674 131.225 88.8729 134.036C89.2014 134.291 101.246 142.029 98.7279 157.834Z" fill="url(#paint11_linear)"/>
<path opacity="0.78" d="M108.4 151.3C93.399 136.153 67.1555 133.196 58.578 137.576C52.738 140.569 46.46 147.468 42.5545 152.359C42.299 150.205 42.0435 147.796 41.8975 145.095C41.8975 145.095 47.993 138.416 53.9425 134.401C53.9425 134.401 70.3675 131.225 88.873 134.036C89.2015 134.109 99.7135 136.919 107.707 149.11C107.707 149.147 107.999 149.986 108.4 151.3Z" fill="url(#paint12_linear)"/>
<path d="M83.544 191.414C83.471 191.377 83.4345 191.341 83.3615 191.304C83.2885 191.268 83.252 191.231 83.179 191.195C83.106 191.158 82.9965 191.122 82.9235 191.049C82.887 191.049 82.8505 191.012 82.814 191.012C69.8565 184.077 57.41 171.339 53.833 167.506C54.3805 166.083 55.0375 164.404 55.7675 162.798C63.031 172.835 82.741 188.311 82.741 188.311L83.544 191.414Z" fill="url(#paint13_linear)"/>
<path d="M72.9589 176.595L72.5939 177.69C68.2504 173.784 59.0889 162.871 56.9719 160.352C57.1179 160.024 57.3004 159.732 57.4829 159.44C62.7754 165.973 72.9589 176.595 72.9589 176.595Z" fill="url(#paint14_linear)"/>
<path d="M105.298 165.243C101.21 171.594 93.1435 183.165 83.8725 190.939C83.836 190.976 83.7995 190.976 83.7995 191.012C83.7265 191.085 83.6535 191.122 83.5805 191.195C83.5075 191.231 83.471 191.268 83.398 191.341C83.3615 191.304 83.2885 191.268 83.252 191.268L83.3615 188.275C83.3615 188.275 96.4649 172.616 102.743 161.228C103.546 162.323 104.458 163.71 105.298 165.243Z" fill="url(#paint15_linear)"/>
<path d="M100.918 159.002C98.217 163.966 93.691 172.142 91.063 175.755L90.479 174.77C90.479 174.77 96.2095 165.572 100.225 158.272C100.371 158.381 100.626 158.637 100.918 159.002Z" fill="url(#paint16_linear)"/>
<path d="M98.7278 157.834C98.5818 158.746 98.3993 159.695 98.1803 160.681C94.8953 174.368 83.5803 191.414 83.5803 191.414C82.8503 190.793 82.1203 190.173 81.3903 189.516C81.0253 189.187 80.6603 188.859 80.2953 188.494C63.1403 172.251 56.3148 147.833 55.2563 143.672C55.1468 143.27 55.1104 143.051 55.1104 143.051L57.4829 140.861C57.5924 140.131 57.6653 139.146 57.7018 137.941C58.0668 128.707 56.9354 107.281 56.9354 107.281L87.0478 108.011H87.2668C87.2303 108.522 87.2303 109.033 87.1938 109.544C86.6828 123.706 87.2668 139.912 87.2668 139.912C87.8508 140.642 88.5808 141.409 89.3473 142.139C89.9313 142.686 90.5153 143.234 91.1358 143.781C94.1288 146.409 97.2313 148.563 97.2313 148.563C97.3408 148.964 97.4868 149.366 97.5963 149.731C98.9103 154.549 98.7278 157.834 98.7278 157.834Z" fill="url(#paint17_linear)"/>
<path d="M97.5964 149.731C92.7419 148.563 82.0109 145.789 83.2154 143.782C84.3834 141.847 86.1719 119.4 87.0479 108.048H87.2669C87.2304 108.559 87.2304 109.07 87.1939 109.581C86.6829 123.743 87.2669 139.949 87.2669 139.949C90.4424 143.855 97.2314 148.6 97.2314 148.6C97.3774 148.928 97.4869 149.33 97.5964 149.731Z" fill="url(#paint18_linear)"/>
<path d="M87.2669 108.011C87.2304 108.522 87.2304 109.033 87.1939 109.544C84.1644 117.319 74.4554 138.343 57.6654 137.978C57.8114 134.291 57.7384 128.634 57.5559 123.195C57.3004 115.019 56.8989 107.318 56.8989 107.318L83.6169 107.975L87.2669 108.011Z" fill="url(#paint19_linear)"/>
<path d="M83.6533 107.938C80.2588 116.625 70.5498 124.363 67.0823 125.422C64.4178 126.225 60.1473 124.473 57.5923 123.195C57.3368 115.019 56.9353 107.318 56.9353 107.318L83.6533 107.938Z" fill="url(#paint20_linear)"/>
<path d="M75.4773 159.622C75.2218 159.622 74.9663 159.476 74.8203 159.221C73.9808 157.578 72.1923 154.841 70.9878 154.476C69.4913 154.001 62.0088 153.819 59.2713 153.783C58.8698 153.783 58.5413 153.454 58.5413 153.053C58.5413 152.651 58.8698 152.323 59.2713 152.323C60.2933 152.323 69.4183 152.469 71.3893 153.089C73.5793 153.783 75.8423 158.089 76.0613 158.564C76.2438 158.929 76.0978 159.367 75.7328 159.549C75.6963 159.586 75.5868 159.622 75.4773 159.622Z" fill="#D98B60"/>
<path d="M79.3828 159.258C79.3098 159.258 79.2003 159.258 79.1273 159.221C78.7623 159.075 78.5433 158.674 78.6893 158.272C79.2003 156.885 80.4778 153.564 81.6093 153.016C82.6313 152.505 90.0043 152.469 93.1433 152.469C93.5448 152.469 93.8733 152.797 93.8733 153.199C93.8733 153.6 93.5448 153.929 93.1433 153.929C88.3253 153.929 82.9598 154.075 82.2663 154.33C81.8648 154.586 80.8793 156.63 80.0763 158.783C79.9303 159.075 79.6748 159.258 79.3828 159.258Z" fill="#D98B60"/>
<path d="M98.1437 160.681C94.8587 174.369 83.5437 191.414 83.5437 191.414C82.8137 190.794 82.0837 190.173 81.3537 189.516C80.9887 189.188 80.6237 188.859 80.2587 188.494C63.1037 172.252 56.2782 147.833 55.2197 143.672C62.4467 156.885 80.4412 180.683 85.9527 182.837C85.9892 182.837 93.3257 171.85 98.1437 160.681Z" fill="url(#paint21_linear)"/>
<path d="M91.6834 151.775C91.6834 160.535 89.8949 174.222 81.3904 189.516C81.0254 189.187 80.6604 188.859 80.2954 188.494C88.5444 173.565 90.2599 160.243 90.2599 151.775C90.2599 145.898 89.4569 142.321 89.3839 142.139C89.3109 141.737 89.5299 141.372 89.9314 141.263C90.3329 141.153 90.7344 141.409 90.8074 141.81C90.8074 141.81 90.9899 142.504 91.1724 143.781C91.3914 145.46 91.6834 148.198 91.6834 151.775Z" fill="url(#paint22_linear)"/>
<path d="M44.7806 87.1719C44.7806 87.1719 40.4006 87.3544 35.2541 84.6169C31.1296 82.3904 28.2096 73.8129 29.3776 68.6664C29.7791 66.9509 30.6186 65.7099 32.0056 65.2719C32.1516 65.2354 32.3341 65.1624 32.4801 65.1259C37.7361 63.8849 41.4226 69.6519 41.4226 69.6519L43.0286 77.9009L44.4886 85.4564L44.7806 87.1719Z" fill="url(#paint23_linear)"/>
<path d="M42.9921 77.8626C39.8166 72.6431 34.8161 67.4236 32.4436 65.0876C37.6996 63.8466 41.3861 69.6136 41.3861 69.6136L42.9921 77.8626Z" fill="url(#paint24_linear)"/>
<path d="M44.7806 87.1701C44.7806 87.1701 40.4006 87.3526 35.2541 84.6151C31.1296 82.3886 28.2096 73.8111 29.3776 68.6646C29.9251 71.5481 31.6771 77.0231 34.4511 80.6731C36.8601 83.8486 41.6781 85.2356 44.4886 85.4546L44.7806 87.1701Z" fill="url(#paint25_linear)"/>
<path d="M42.9557 82.4252C42.7367 82.4252 42.5542 82.3522 42.4447 82.1332C39.8167 76.7312 34.2322 73.4462 34.1957 73.4462C33.9037 73.2637 33.7942 72.8987 33.9767 72.5702C34.1592 72.2782 34.5242 72.1687 34.8527 72.3512C35.1082 72.4972 40.7657 75.8552 43.5032 81.5857C43.6492 81.8412 43.5032 82.2062 43.2112 82.3522C43.1382 82.3887 43.0652 82.3887 42.9557 82.4252Z" fill="#D98B60"/>
<path d="M39.8165 84.7246C40.0355 84.7246 40.218 84.8341 40.3275 85.0166C40.364 85.0896 40.4005 85.1991 40.4005 85.2721C40.364 85.4911 40.145 85.6736 39.926 85.6736C39.6705 85.7101 39.2325 85.8196 39.0135 86.3671C38.685 87.1336 39.0135 88.1921 39.7435 88.2286C40.4735 88.2651 40.9115 87.5716 41.021 86.732L42.043 86.9145C42.043 86.9145 41.5685 89.1776 39.8165 89.3236C38.101 89.4696 37.1155 87.3891 37.9915 85.8196C38.5755 84.7976 39.415 84.6881 39.8165 84.7246Z" fill="url(#paint26_linear)"/>
<path d="M98.1074 87.1719C98.1074 87.1719 102.487 87.3544 107.634 84.6169C111.758 82.3904 114.678 73.8129 113.51 68.6664C113.109 66.9509 112.269 65.7099 110.882 65.2719C110.736 65.2354 110.554 65.1624 110.408 65.1259C105.152 63.8849 101.465 69.6519 101.465 69.6519L99.8594 77.9009L98.3994 85.4564L98.1074 87.1719Z" fill="url(#paint27_linear)"/>
<path d="M99.9324 77.8626C103.108 72.6431 108.108 67.4236 110.481 65.0876C105.225 63.8466 101.538 69.6136 101.538 69.6136L99.9324 77.8626Z" fill="url(#paint28_linear)"/>
<path d="M98.1074 87.1701C98.1074 87.1701 102.487 87.3526 107.634 84.6151C111.758 82.3886 114.678 73.8111 113.51 68.6646C112.963 71.5481 111.211 77.0231 108.437 80.6731C106.028 83.8486 101.21 85.2356 98.3994 85.4546L98.1074 87.1701Z" fill="url(#paint29_linear)"/>
<path d="M99.9324 82.4252C100.151 82.4252 100.334 82.3522 100.443 82.1332C103.071 76.7312 108.656 73.4462 108.692 73.4462C108.984 73.2637 109.094 72.8987 108.911 72.5702C108.729 72.2782 108.364 72.1687 108.035 72.3512C107.78 72.4972 102.122 75.8552 99.3849 81.5857C99.2389 81.8412 99.3849 82.2062 99.6769 82.3522C99.7864 82.3887 99.8594 82.3887 99.9324 82.4252Z" fill="#D98B60"/>
<path d="M103.728 65.197C103.619 67.6425 101.173 76.0375 101.173 76.0375C101.1 76.585 98.1436 94.5795 97.5231 97.317C96.9026 100.128 82.2661 118.962 81.4266 119.217C81.2076 119.29 80.0396 119.363 78.4336 119.4C75.8056 119.509 72.0461 119.546 69.2721 119.4C67.5931 119.327 66.2791 119.181 65.8411 118.962C64.2716 118.122 46.4231 98.1565 46.0581 96.441C45.6931 94.7255 43.1381 82.0965 43.1381 82.0965C43.1381 82.0965 40.1086 73.446 39.9626 71.256C39.8531 69.066 40.2181 39.3915 40.2181 39.3915C40.2181 39.3915 43.1746 37.53 47.5911 35.3765C53.4311 32.566 61.8626 29.281 69.4181 29.281C76.7546 29.281 85.1496 31.2885 91.2451 33.3325C96.2091 34.975 99.6766 36.654 99.9321 37.311C100.553 38.8075 103.838 62.7515 103.728 65.197Z" fill="url(#paint30_linear)"/>
<path d="M103.728 65.1969C103.619 67.6424 101.173 76.0374 101.173 76.0374C101.1 76.5849 98.1436 94.5794 97.5231 97.3169C96.9026 100.127 82.2661 118.961 81.4266 119.217C81.2076 119.29 80.0396 119.363 78.4336 119.399C87.0841 103.814 90.5881 80.5634 90.5881 77.2419C90.5881 73.8474 88.3981 68.4819 88.3981 68.4819L91.7926 58.9919C91.7926 58.9919 91.5006 43.4429 91.2451 33.3689C96.2091 35.0114 99.6766 36.6904 99.9321 37.3474C100.553 38.8074 103.838 62.7514 103.728 65.1969Z" fill="url(#paint31_linear)"/>
<path d="M69.2721 119.436C67.5931 119.363 66.2791 119.217 65.8411 118.998C64.9286 118.524 58.8696 111.954 53.6866 106.004C49.6716 101.442 46.2041 97.2441 46.0581 96.4776C45.6931 94.7621 43.1381 82.1331 43.1381 82.1331C43.1381 82.1331 40.1086 73.4826 39.9626 71.2926C39.8531 69.1026 40.2181 39.4281 40.2181 39.4281C40.2181 39.4281 40.2911 39.3916 40.4371 39.2821C41.2036 38.8076 43.9046 37.2016 47.5911 35.4131C49.4161 48.6261 51.8981 61.1456 51.8981 61.1456L61.5706 69.1756C61.5706 69.1756 56.0956 74.1031 55.7306 75.3806C55.3656 76.6581 59.0156 92.9006 64.3081 107.683C65.9506 112.209 67.6661 116.151 69.2721 119.436Z" fill="url(#paint32_linear)"/>
<path d="M53.6866 105.968C49.6716 101.405 46.2041 97.2076 46.0581 96.4411C45.6931 94.7256 43.1381 82.0966 43.1381 82.0966C43.1381 82.0966 40.1086 73.4461 39.9626 71.2561C39.8531 69.0661 40.2181 39.3916 40.2181 39.3916C40.2181 39.3916 40.2911 39.3551 40.4371 39.2456C41.0941 46.9836 42.9556 61.9486 43.6856 63.1166C44.5981 64.5766 49.1606 68.2266 49.1606 68.2266C49.1606 68.2266 47.7006 75.5266 47.8831 81.5491C47.9926 85.1626 51.1681 97.0251 53.6866 105.968Z" fill="url(#paint33_linear)"/>
<path d="M87.0132 98.412C87.0132 98.412 85.6627 97.244 84.0202 96.4045C82.3777 95.565 75.6252 93.9225 75.6252 93.9225C75.6252 93.9225 73.8732 95.4555 73.3622 95.3825C72.8877 95.3095 71.1722 93.9225 71.1722 93.9225C71.1722 93.9225 61.4997 96.4775 60.2952 97.5725C59.0907 98.6675 57.2657 100.565 57.2657 100.565C57.2657 100.565 55.6962 98.5945 53.7252 95.8935C51.2432 92.5355 48.1042 88.0825 46.6807 85.1625C44.1257 79.87 40.0012 71.2925 40.0012 71.2925C40.1107 73.4825 43.1767 82.133 43.1767 82.133C43.1767 82.133 45.7317 94.7985 46.0967 96.4775C46.3157 97.4265 52.0462 104.179 57.3022 110.019C61.3902 114.581 65.1862 118.596 65.8797 118.961C67.4492 119.801 80.5892 119.436 81.4652 119.217C81.7572 119.144 83.5822 116.99 85.9182 114.034C90.5537 108.157 97.1602 99.1785 97.5617 97.317C97.9267 95.565 99.3137 87.535 100.226 81.8775C100.774 78.702 101.175 76.2565 101.175 76.0375C95.9557 90.017 87.0132 98.412 87.0132 98.412ZM81.0272 109.289C81.1002 109.471 78.2897 109.398 77.6692 109.106C77.0487 108.814 75.9537 104.617 75.9537 104.617L72.1942 104.507C72.1942 104.507 70.6247 108.084 70.1137 108.522C69.6392 108.96 66.2082 109.362 65.9892 108.96C63.7262 104.872 62.6312 100.821 62.6312 100.821C64.7482 98.5215 70.7707 96.733 70.7707 96.733L73.3257 98.0835L76.0632 96.9885C80.7352 98.266 83.8377 100.711 83.8377 100.711C83.3997 103.23 80.9907 109.106 81.0272 109.289Z" fill="url(#paint34_linear)"/>
<path d="M100.188 81.8774C99.2389 87.5349 97.8884 95.5649 97.5234 97.3169C97.1219 99.1784 90.5154 108.157 85.8799 114.034C87.3034 107.975 89.4934 98.8499 90.2234 97.4629C91.1359 95.7109 97.1219 88.1554 100.188 81.8774Z" fill="url(#paint35_linear)"/>
<path opacity="0.7" d="M57.2639 110.019C52.0079 104.142 46.2409 97.4265 46.0584 96.4775C45.6934 94.762 43.1384 82.133 43.1384 82.133C43.1384 82.133 40.1089 73.4825 39.9629 71.2925C39.9629 71.2925 44.0874 79.87 46.6424 85.1625C48.0659 88.119 51.2049 92.5355 53.6869 95.8935C54.7089 100.273 55.8769 105.091 57.2639 110.019Z" fill="url(#paint36_linear)"/>
<path d="M73.3237 101.879C69.6372 101.879 66.5347 101.514 66.3522 101.514C65.9507 101.478 65.6587 101.113 65.6952 100.711C65.7317 100.31 66.0967 100.018 66.4982 100.054C66.5712 100.054 74.7837 101.003 80.3317 99.8355C80.7332 99.7625 81.0982 100.018 81.2077 100.383C81.2807 100.784 81.0252 101.149 80.6602 101.259C78.3607 101.733 75.7327 101.879 73.3237 101.879Z" fill="#D98B60"/>
<path d="M73.9807 105.347C72.1192 105.347 70.5132 105.128 70.4037 105.092C70.0022 105.019 69.7467 104.654 69.7832 104.252C69.8197 103.851 70.2212 103.595 70.6227 103.632C70.6592 103.632 74.8932 104.289 77.5212 103.413C77.9227 103.303 78.3242 103.486 78.4337 103.887C78.5432 104.289 78.3607 104.69 77.9592 104.8C76.7912 105.238 75.2947 105.347 73.9807 105.347Z" fill="#D98B60"/>
<path d="M66.8634 85.0166C66.4619 85.0166 66.1334 84.6881 66.1334 84.2866C66.1334 82.7536 66.1334 69.4675 66.2064 68.774C66.2794 68.1535 66.8634 66.219 67.1554 65.343L66.2429 64.175C65.9874 63.8465 66.0604 63.4085 66.3524 63.153C66.6809 62.8975 67.1189 62.9705 67.3744 63.2625L68.5424 64.7225C68.6884 64.905 68.7249 65.1605 68.6519 65.416C68.2504 66.6205 67.7029 68.5185 67.6664 68.92C67.6299 69.4675 67.5934 78.4101 67.5934 84.3231C67.5934 84.6881 67.2649 85.0166 66.8634 85.0166Z" fill="#D98B60"/>
<path d="M73.3237 92.1706C73.2142 92.1706 73.1047 92.1706 72.9952 92.1706C70.4402 91.9151 65.9507 89.214 65.7682 89.1045C65.4397 88.8855 65.3302 88.4476 65.5127 88.1191C65.7317 87.7906 66.1697 87.6811 66.4982 87.8636C67.7027 88.5935 71.2797 90.5645 73.1412 90.747C74.8932 90.9295 77.9957 88.8126 79.0542 87.9731C79.3827 87.7176 79.8207 87.7906 80.0762 88.0826C80.3317 88.3746 80.2587 88.849 79.9667 89.1045C79.5652 89.3965 75.9882 92.1706 73.3237 92.1706Z" fill="#D98B60"/>
<path d="M61.0597 63.0435C61.0597 63.0435 55.0737 62.5325 51.6427 62.35C50.8397 62.3135 50.1827 62.277 49.7812 62.3135C47.6277 62.35 42.1162 63.4815 42.1162 63.4815C42.1162 63.4815 44.1237 60.7075 45.6932 59.5395C47.2627 58.3715 49.4892 58.1525 50.4017 58.043C50.8032 57.97 51.9347 57.97 53.2122 58.0065C54.9277 58.043 56.8622 58.0795 57.2637 58.0795C57.9572 58.0795 58.9427 59.3205 58.9427 59.3205C58.9427 59.3205 58.5047 58.262 58.5412 57.97C58.5777 57.6415 60.6582 59.5395 61.0597 63.0435Z" fill="url(#paint37_linear)"/>
<path opacity="0.7" d="M61.0598 63.0434C61.0598 63.0434 55.0738 62.5325 51.6428 62.35C51.3143 61.839 51.0588 61.328 51.3508 61.2184C51.9713 60.9994 54.1248 61.839 54.2708 61.8755C54.1613 61.766 52.0443 59.722 52.7013 59.5395C53.3583 59.357 56.2418 60.6345 56.2418 60.6345C55.5118 59.576 54.0153 58.5175 53.1758 58.0065C54.8913 58.043 56.8258 58.0795 57.2273 58.0795C57.9208 58.0795 58.9063 59.3205 58.9063 59.3205C58.9063 59.3205 58.4683 58.262 58.5048 57.97C58.5778 57.6415 60.6583 59.5395 61.0598 63.0434Z" fill="url(#paint38_linear)"/>
<path d="M63.3229 69.139C62.2644 69.9055 59.3809 70.891 59.3809 70.891C59.1254 70.891 58.9064 70.9275 58.6509 70.9275C57.3004 71.0005 55.8769 70.9275 54.7454 70.891C53.6504 70.818 52.8839 70.745 52.8839 70.745C51.8619 70.0515 50.0004 67.606 49.4894 66.949C49.4164 66.8395 49.3799 66.7665 49.3799 66.7665L51.6429 65.5984C52.5919 65.3064 53.9789 65.1969 55.4389 65.2699C56.4974 65.3429 57.6289 65.4524 58.5779 65.7079C59.7459 65.9634 60.7314 66.3284 61.3154 66.8029C63.0674 68.1535 63.3229 69.139 63.3229 69.139Z" fill="white"/>
<path d="M59.7458 68.3358C59.7458 69.3943 59.3078 70.3068 58.6508 70.9273C57.3003 71.0003 55.8768 70.9273 54.7453 70.8908C54.0883 70.2703 53.6868 69.3578 53.6868 68.3358C53.6868 66.9853 54.4168 65.8173 55.4388 65.2698C56.4973 65.3428 57.6288 65.4523 58.5778 65.7078C59.3078 66.3283 59.7458 67.2773 59.7458 68.3358Z" fill="url(#paint39_linear)"/>
<path opacity="0.7" d="M56.7528 69.3577C57.2568 69.3577 57.6653 68.9002 57.6653 68.3357C57.6653 67.7713 57.2568 67.3137 56.7528 67.3137C56.2489 67.3137 55.8403 67.7713 55.8403 68.3357C55.8403 68.9002 56.2489 69.3577 56.7528 69.3577Z" fill="url(#paint40_linear)"/>
<path opacity="0.6" d="M57.8478 68.2264C58.3518 68.2264 58.7603 67.7688 58.7603 67.2044C58.7603 66.6399 58.3518 66.1824 57.8478 66.1824C57.3438 66.1824 56.9353 66.6399 56.9353 67.2044C56.9353 67.7688 57.3438 68.2264 57.8478 68.2264Z" fill="white"/>
<path opacity="0.7" d="M63.3228 69.139C60.7313 66.6205 56.4608 66.2555 53.9788 66.4015C51.9348 66.511 50.1098 66.8395 49.5258 66.949C49.4528 66.8395 49.4163 66.7665 49.4163 66.7665L51.6793 65.5984C52.6283 65.3064 54.0153 65.1969 55.4753 65.2699C56.5338 65.3429 57.6653 65.4524 58.6143 65.7079C59.7823 65.9634 60.7678 66.3284 61.3518 66.8029C63.0673 68.1534 63.3228 69.139 63.3228 69.139Z" fill="url(#paint41_linear)"/>
<path d="M48.4673 67.3869C48.4673 67.3869 51.2413 65.1969 52.5188 64.6859C52.5188 64.6859 56.7163 64.6129 59.2713 65.0144C59.2713 65.0144 61.6438 66.2919 63.1038 68.0074C63.1038 68.0074 60.1838 66.2554 59.0158 65.8539L52.7743 65.7079C52.7743 65.7444 49.8543 66.6569 48.4673 67.3869Z" fill="url(#paint42_linear)"/>
<path d="M80.2588 62.6785C80.2588 62.6785 86.2448 62.1675 89.6758 61.985C90.4788 61.9485 91.1358 61.912 91.5373 61.9485C93.6908 61.985 99.2023 63.1165 99.2023 63.1165C99.2023 63.1165 97.1948 60.3425 95.6253 59.1745C94.0558 58.0065 91.8293 57.7875 90.9168 57.678C90.5153 57.605 89.3838 57.605 88.1063 57.6415C86.3908 57.678 84.4563 57.7145 84.0548 57.7145C83.3613 57.7145 82.3758 58.9555 82.3758 58.9555C82.3758 58.9555 82.8138 57.897 82.7773 57.605C82.7773 57.2765 80.6603 59.1745 80.2588 62.6785Z" fill="url(#paint43_linear)"/>
<path opacity="0.7" d="M80.2588 62.6785C80.2588 62.6785 86.2448 62.1675 89.6758 61.985C90.0043 61.474 90.2598 60.963 89.9678 60.8535C89.3473 60.6345 87.1938 61.474 87.0478 61.5105C87.1573 61.401 89.2743 59.357 88.6173 59.1745C87.9603 58.992 85.0768 60.2695 85.0768 60.2695C85.8068 59.211 87.3033 58.1525 88.1428 57.6415C86.4273 57.678 84.4928 57.7145 84.0913 57.7145C83.3978 57.7145 82.4123 58.9555 82.4123 58.9555C82.4123 58.9555 82.8503 57.897 82.8138 57.605C82.7773 57.2765 80.6603 59.1745 80.2588 62.6785Z" fill="url(#paint44_linear)"/>
<path d="M79.2732 68.7739C80.3317 69.5404 83.2152 70.5259 83.2152 70.5259C83.4707 70.5259 83.6897 70.5624 83.9452 70.5624C85.2957 70.6354 86.7192 70.5624 87.8507 70.5259C88.9457 70.4529 89.7122 70.3799 89.7122 70.3799C90.7342 69.6864 92.5957 67.2409 93.1067 66.584C93.1797 66.4745 93.2162 66.4015 93.2162 66.4015L90.9532 65.2335C90.0042 64.9415 88.6172 64.832 87.1572 64.905C86.0987 64.978 84.9672 65.0875 84.0182 65.343C82.8502 65.5985 81.8647 65.9635 81.2807 66.4379C79.4922 67.7884 79.2732 68.7739 79.2732 68.7739Z" fill="white"/>
<path d="M82.8137 67.9708C82.8137 69.0293 83.2517 69.9418 83.9087 70.5623C85.2592 70.6353 86.6827 70.5623 87.8142 70.5258C88.4712 69.9053 88.8727 68.9928 88.8727 67.9708C88.8727 66.6203 88.1427 65.4523 87.1207 64.9048C86.0622 64.9778 84.9307 65.0873 83.9817 65.3428C83.2882 65.9633 82.8137 66.9123 82.8137 67.9708Z" fill="url(#paint45_linear)"/>
<path opacity="0.7" d="M85.8432 68.9927C86.3471 68.9927 86.7557 68.5352 86.7557 67.9707C86.7557 67.4063 86.3471 66.9487 85.8432 66.9487C85.3392 66.9487 84.9307 67.4063 84.9307 67.9707C84.9307 68.5352 85.3392 68.9927 85.8432 68.9927Z" fill="url(#paint46_linear)"/>
<path opacity="0.6" d="M86.9381 67.8614C87.4421 67.8614 87.8506 67.4038 87.8506 66.8394C87.8506 66.2749 87.4421 65.8174 86.9381 65.8174C86.4342 65.8174 86.0256 66.2749 86.0256 66.8394C86.0256 67.4038 86.4342 67.8614 86.9381 67.8614Z" fill="white"/>
<path opacity="0.7" d="M79.2732 68.7739C81.8647 66.2554 86.1352 65.8905 88.6172 66.0365C90.6612 66.146 92.4862 66.4744 93.0702 66.5839C93.1432 66.4744 93.1797 66.4014 93.1797 66.4014L90.9167 65.2335C89.9677 64.9415 88.5807 64.832 87.1207 64.905C86.0622 64.978 84.9307 65.0875 83.9817 65.343C82.8137 65.5985 81.8282 65.9634 81.2442 66.4379C79.4922 67.7884 79.2732 68.7739 79.2732 68.7739Z" fill="url(#paint47_linear)"/>
<path d="M94.0923 67.0219C94.0923 67.0219 91.3183 64.8319 90.0408 64.3209C90.0408 64.3209 85.8433 64.2479 83.2883 64.6494C83.2883 64.6494 80.9158 65.9269 79.4558 67.6424C79.4558 67.6424 82.3758 65.8904 83.5438 65.4889L89.7853 65.3429C89.8218 65.3794 92.7418 66.2919 94.0923 67.0219Z" fill="url(#paint48_linear)"/>
<path d="M112.634 46.1085C113.182 48.627 112.926 49.868 112.78 50.087C112.671 50.306 110.919 47.094 110.773 46.8385C110.846 47.0575 111.904 49.9045 111.758 51.0725C111.649 52.204 109.678 49.5395 109.459 49.2475C109.568 49.43 110.079 50.4155 110.481 51.4375C110.736 52.058 110.955 52.6785 111.028 53.153C111.065 53.3355 111.028 53.445 110.955 53.518C110.7 53.81 109.897 53.7005 109.167 53.518C108.4 53.3355 107.67 53.0435 107.67 53.0435C107.67 53.0435 103.473 67.0595 103.29 68.2275C103.108 69.359 101.137 76.0385 101.137 76.0385C101.137 76.0385 101.137 60.4165 100.954 59.504C100.772 58.5915 94.0923 50.1965 94.0923 50.1965L93.9828 43.517L93.9463 41.984L93.9098 40.305L93.8733 38.115C93.8733 38.115 85.5513 36.363 82.7043 35.998C79.8573 35.633 73.4698 36.29 69.7468 36.217C66.0238 36.144 61.8993 35.706 56.7163 36.217C51.8618 36.6915 46.1678 38.845 45.5108 39.137C45.4743 39.137 45.4743 39.137 45.4743 39.137C45.4743 39.137 45.3283 39.6845 45.1093 40.597C44.8173 41.838 44.3793 43.6995 44.0508 45.7435C43.8318 47.0575 43.6493 48.408 43.5763 49.722C43.5763 49.722 41.3863 53.737 40.8753 56.1095C40.3643 58.482 39.9993 71.2935 39.9993 71.2935C39.9993 71.2935 33.4293 60.818 32.0788 58.1535C30.7283 55.489 30.5093 53.153 30.5093 53.153C30.5093 53.153 29.5238 54.3575 28.9763 54.321C28.7573 54.2845 28.6113 53.591 28.5748 52.6785C28.5383 51.5105 28.6843 49.9775 28.9398 49.357C28.8668 49.3935 27.5893 50.1965 26.7133 50.452C26.6038 50.4885 26.5308 50.4155 26.4578 50.306C25.8738 49.357 26.3848 44.101 31.2028 42.057C31.2028 42.057 28.8303 42.495 26.8958 43.59C24.9613 44.685 25.9833 40.743 31.6773 39.867C31.6773 39.867 26.0198 37.166 24.4138 31.5085C23.9028 29.7565 23.8663 27.968 24.0123 26.3255C24.3773 22.712 25.8738 19.865 26.2388 19.573C26.7863 19.135 27.1513 24.902 28.7938 27.165C28.6843 26.8365 27.4068 22.785 28.6843 18.478C28.6843 18.478 30.3998 22.42 32.5898 24.683V24.6465C32.5168 24.3545 31.8233 21.836 31.8233 18.697C31.8233 15.3755 33.3928 13.149 33.7213 13.0395C34.0133 12.93 38.2108 18.5145 38.3933 18.77C38.3203 18.5875 37.1523 15.3755 37.2983 14.4995C37.4443 13.587 43.9413 7.27253 52.8108 5.30153C61.6803 3.33053 65.2573 3.73203 66.6078 4.57153C67.9948 5.41103 71.3163 11.762 71.9368 14.098C71.9368 14.098 72.3748 10.7035 71.4988 7.12653C70.9878 5.04603 70.2943 3.54953 69.7468 2.49103C69.3453 1.72453 69.0533 1.21353 69.0168 0.958033C68.8708 0.301033 72.5573 1.39603 75.0393 4.49853C77.5213 7.60103 79.7478 11.324 80.4778 13.514C80.4778 13.514 80.4413 9.28003 79.1273 6.17753C78.2878 4.17003 77.3023 2.85603 76.6453 2.12603C76.2803 1.72453 76.0248 1.46903 75.9518 1.39603C75.6963 1.10403 79.1638 0.739033 82.8868 4.68103C86.3908 8.33103 87.0478 12.6745 87.1208 13.1855C87.1208 13.1855 87.1208 13.149 87.1208 13.1125C87.1208 13.1125 87.1208 13.076 87.1208 13.0395C87.1208 12.9665 87.1208 12.8935 87.0843 12.8205C87.0113 11.8715 86.7923 9.60853 86.4273 8.14853C86.0988 6.98053 85.6608 5.95853 85.2593 5.19203C85.0038 4.79053 84.7848 4.46203 84.6023 4.24303C84.1278 3.69553 87.4493 4.35253 88.9823 7.92953C90.5153 11.5065 90.5883 13.514 90.5883 13.514C90.5883 13.514 90.9533 9.38953 90.8803 7.27253C90.8073 5.15553 90.4788 4.13353 90.4423 3.76853C90.3693 3.40353 93.2163 5.52053 93.8003 7.85653C94.3843 10.1925 94.4938 13.6965 94.4938 13.6965C94.4938 13.6965 94.7128 11.981 94.8223 10.3385C94.8953 9.35303 94.9318 8.40403 94.9318 7.85653C94.8588 6.32353 99.4578 8.87854 101.94 12.6745C101.94 12.6745 104.604 13.6235 106.466 16.069C107.086 16.872 107.597 17.821 107.926 18.9525C107.926 18.989 107.926 18.989 107.926 19.0255C109.167 23.6245 107.78 28.5155 107.123 30.596C107.123 30.596 109.386 27.457 110.006 25.6685C110.59 23.88 110.736 27.7855 110.152 29.574C110.225 29.428 111.503 27.238 112.16 24.975C112.853 22.639 113.656 28.041 112.926 30.6325C112.233 33.151 110.371 36.947 110.262 37.2025C110.371 37.0565 111.649 35.487 112.123 34.7205C112.634 33.9175 112.707 38.407 109.751 41.108C109.714 41.1445 112.087 43.59 112.634 46.1085Z" fill="url(#paint49_linear)"/>
<path opacity="0.7" d="M112.634 46.1075C113.182 48.626 112.926 49.867 112.78 50.086C112.671 50.305 110.919 47.093 110.773 46.8375C110.846 47.0565 111.904 49.9035 111.758 51.0715C111.649 52.203 109.678 49.5385 109.459 49.2465C109.568 49.429 110.079 50.4145 110.481 51.4365C110.736 52.057 110.955 52.6775 111.028 53.152C111.065 53.3345 111.028 53.444 110.955 53.517C110.7 53.809 109.897 53.6995 109.167 53.517C108.4 53.3345 107.67 53.0425 107.67 53.0425C107.67 53.0425 103.473 67.0585 103.29 68.2265C103.108 69.358 101.137 76.0375 101.137 76.0375C101.137 76.0375 101.137 60.4155 100.954 59.503C100.772 58.5905 94.0923 50.1955 94.0923 50.1955L93.9827 43.516L93.9463 41.983L93.9098 40.304L93.8733 38.114C93.8733 38.114 85.5513 36.362 82.7043 35.997C79.8573 35.632 73.4698 36.289 69.7468 36.216C66.0238 36.143 61.8993 35.705 56.7163 36.216C51.8618 36.6905 46.1678 38.844 45.5108 39.136C45.4743 39.136 45.4743 39.136 45.4743 39.136C45.4743 39.136 45.3283 39.6835 45.1093 40.596C44.8173 41.837 44.3793 43.6985 44.0508 45.7425C43.8318 47.0565 43.6493 48.407 43.5763 49.721C43.5763 49.721 43.5398 49.794 43.4668 49.9035C43.0288 50.7065 41.3133 54.028 40.8753 56.1085C40.3643 58.481 39.9993 71.2925 39.9993 71.2925C39.9993 71.2925 33.4293 60.817 32.0788 58.1525C31.7138 57.459 31.4583 56.7655 31.2393 56.145C30.6553 54.4295 30.5093 53.1885 30.5093 53.1885C30.5093 53.1885 29.5238 54.393 28.9763 54.3565C28.7573 54.32 28.6113 53.6265 28.5748 52.714C28.5383 51.546 28.6843 50.013 28.9398 49.3925C28.8668 49.429 27.5893 50.232 26.7133 50.4875C26.6038 50.524 26.5308 50.451 26.4578 50.3415C25.8738 49.3925 26.3848 44.1365 31.2028 42.0925C31.2028 42.0925 28.8303 42.5305 26.8958 43.6255C24.9613 44.7205 25.9833 40.7785 31.6773 39.9025C31.6773 39.9025 26.0198 37.2015 24.4138 31.544C23.9028 29.792 23.8663 28.0035 24.0123 26.361C28.9033 34.902 38.3203 36.289 44.3063 36.216C47.5548 36.1795 49.7813 35.705 49.7813 35.705C48.0293 33.442 47.8833 32.128 47.8833 32.128C53.0663 35.778 62.8483 34.318 61.9358 32.128C61.0233 29.938 62.5928 28.77 64.1258 30.668C65.6588 32.566 68.8708 34.245 68.5058 32.493C68.2138 31.179 68.0678 29.0985 68.2868 28.6605C68.3598 28.551 68.4328 28.5145 68.5423 28.697C68.5423 28.7335 68.5788 28.7335 68.6153 28.77C69.2723 29.792 71.3528 34.4275 71.1703 29.135C71.1703 29.062 71.1703 28.989 71.1703 28.916C71.0608 23.733 73.1048 19.937 73.4698 22.8205C73.6523 24.317 74.1633 26.9815 75.0758 29.3175C75.9518 31.544 77.1928 33.442 78.8353 33.588C82.1933 33.88 86.3178 31.033 86.3178 31.033C85.2228 34.391 87.4858 37.968 93.8003 36.946C94.8953 36.7635 95.8808 36.508 96.7933 36.1795C101.027 34.7195 102.962 32.128 102.67 32.274C102.305 32.4565 99.1293 33.734 98.9468 33.807C99.1658 33.588 106.612 26.288 107.962 19.061C109.203 23.66 107.816 28.551 107.159 30.6315C107.159 30.6315 109.422 27.4925 110.043 25.704C110.627 23.9155 110.773 27.821 110.189 29.6095C110.262 29.4635 111.539 27.2735 112.196 25.0105C112.89 22.6745 113.693 28.0765 112.963 30.668C112.269 33.1865 110.408 36.9825 110.298 37.238C110.408 37.092 111.685 35.5225 112.16 34.756C112.671 33.953 112.744 38.4425 109.787 41.1435C109.714 41.1435 112.087 43.589 112.634 46.1075Z" fill="url(#paint50_linear)"/>
<path opacity="0.7" d="M43.4668 49.9036C43.0288 50.7066 41.3133 54.0281 40.8753 56.1086C40.3643 58.4811 39.9993 71.2926 39.9993 71.2926C39.9993 71.2926 33.4293 60.8171 32.0788 58.1526C31.7138 57.4591 31.4583 56.7656 31.2393 56.1451C33.8308 54.2106 37.9918 51.6556 43.4668 49.9036Z" fill="url(#paint51_linear)"/>
<path d="M110.992 53.5171C104.385 46.3996 95.6983 42.6401 93.9828 41.9466L93.9463 40.2676C96.0998 41.1801 104.13 44.8301 110.517 51.4366C110.773 52.0571 110.992 52.6776 111.065 53.1521C111.101 53.3346 111.101 53.4441 110.992 53.5171Z" fill="url(#paint52_linear)"/>
<path d="M105.991 58.8459C105.845 59.3204 105.699 59.7949 105.553 60.3059C103.035 58.1159 100.005 56.0719 97.5963 54.5754C96.6108 53.2979 95.6253 52.0204 94.9683 51.1809C97.5233 52.6409 102.341 55.5974 105.991 58.8459Z" fill="url(#paint53_linear)"/>
<path opacity="0.7" d="M109.24 53.5169C108.473 53.3344 107.743 53.0424 107.743 53.0424C107.743 53.0424 106.94 55.7434 106.028 58.8459C105.882 59.3204 105.736 59.7949 105.59 60.3059C104.531 63.9194 103.436 67.6424 103.363 68.2264C103.181 69.3579 101.21 76.0374 101.21 76.0374C101.21 76.0374 101.21 60.4154 101.027 59.5029C100.954 59.0649 99.2753 56.8019 97.6328 54.6119C96.6473 53.3344 95.6618 52.0569 95.0048 51.2174C94.4938 50.5969 94.2018 50.1954 94.2018 50.1954L94.0923 43.5159C97.6693 44.9394 103.582 47.9689 109.24 53.5169Z" fill="url(#paint54_linear)"/>
<path d="M45.1091 40.5959C44.8172 41.8369 44.3792 43.6985 44.0507 45.7425C38.8676 47.3485 35.4001 50.159 35.3271 49.7575C35.2176 49.283 36.6777 46.1805 34.5971 47.312C32.1516 48.6625 30.0711 50.816 28.6111 52.6775C28.5746 51.5095 28.7206 49.9764 28.9761 49.3559C28.9031 49.3924 27.6256 50.1954 26.7496 50.4509C26.6401 50.4874 26.5671 50.4145 26.4941 50.305C27.7716 48.334 30.5456 44.538 34.1956 42.567C36.2761 41.4355 34.8161 44.5015 34.9256 45.0125C34.9621 45.4505 39.0866 42.0559 45.1091 40.5959Z" fill="url(#paint55_linear)"/>
<path d="M71.9369 14.0605C71.9369 14.0605 68.8709 9.64402 67.6299 7.52702C66.4254 5.41002 65.6954 4.60702 58.0304 5.99402C50.3654 7.38102 39.5979 12.8195 39.3059 15.0095C39.0139 17.1995 41.0579 22.9665 41.0579 22.9665C41.0579 22.9665 34.8529 15.265 33.7214 16.36C32.5534 17.455 32.6264 24.682 32.6264 24.682V24.6455C32.5534 24.3535 31.8599 21.835 31.8599 18.696C31.8599 15.3745 33.4294 13.148 33.7579 13.0385C34.0499 12.929 38.2474 18.5135 38.4299 18.769C38.3569 18.5865 37.1889 15.3745 37.3349 14.4985C37.4809 13.586 43.9779 7.27152 52.8474 5.30052C61.7169 3.32952 65.2939 3.73102 66.6444 4.57052C67.9949 5.41002 71.3529 11.761 71.9369 14.0605Z" fill="url(#paint56_linear)"/>
<path d="M75.0028 4.46098C77.4848 7.56348 79.7113 11.2865 80.4413 13.4765C77.5578 7.12548 71.9003 2.96448 69.7103 2.48998C69.3088 1.72348 69.0168 1.21248 68.9803 0.956975C68.8343 0.299975 72.5208 1.35848 75.0028 4.46098Z" fill="url(#paint57_linear)"/>
<path d="M82.8868 4.60694C86.4638 8.43944 87.0843 12.9654 87.1208 13.2209C85.2958 6.32244 78.2148 1.97894 76.6452 2.05194C76.2802 1.65044 76.0247 1.39494 75.9517 1.32194C75.7327 1.06644 79.2003 0.66494 82.8868 4.60694Z" fill="url(#paint58_linear)"/>
<path d="M88.9822 7.96489C90.5152 11.5419 90.5882 13.5494 90.5882 13.5494C89.7852 8.47589 85.7702 4.75289 85.2227 5.22739C84.9672 4.82589 84.7482 4.49739 84.5657 4.27839C84.1277 3.73089 87.4127 4.38789 88.9822 7.96489Z" fill="url(#paint59_linear)"/>
<path d="M102.086 13.4399C103.436 18.9879 101.465 24.0249 101.721 19.6449C101.976 15.2649 100.151 11.5419 99.8228 13.3304C99.5308 15.0824 97.7423 15.7759 97.5233 13.3304C97.2678 10.8849 96.6108 8.22036 96.1363 10.1549C95.7713 11.6514 95.1143 11.3229 94.8223 10.4104C94.8953 9.42486 94.9318 8.47586 94.9318 7.92836C94.8588 6.39536 99.4578 8.95036 101.94 12.7464C101.94 12.7464 104.604 13.6954 106.466 16.1409C104.458 14.2064 102.086 13.4399 102.086 13.4399Z" fill="url(#paint60_linear)"/>
<path opacity="0.5" d="M41.6052 17.017C40.1817 18.7325 45.0362 28.7335 50.0002 31.5075C51.0952 32.128 49.9272 29.0255 50.0002 28.113C50.0732 27.2005 51.7157 30.376 52.9202 30.7775C54.1247 31.2155 53.3582 27.383 53.3582 27.383C53.3582 27.383 55.2562 30.376 55.6577 30.4855C56.0957 30.595 58.5047 28.551 62.5927 28.186C63.9432 28.0765 62.9577 23.5505 62.9577 23.5505C62.9577 23.5505 65.0747 25.923 65.2207 27.2735C65.3302 28.624 66.0602 25.923 66.0602 23.514C66.0602 23.514 67.4107 25.5945 67.5202 26.9085C67.6297 28.259 68.8707 23.514 67.1552 15.776C65.4397 8.03803 63.9797 8.40303 63.6877 9.20603C63.3957 10.009 63.9797 15.1555 63.9797 15.1555C63.9797 15.1555 61.8992 10.3375 60.6217 9.60753C59.3442 8.87753 60.9867 15.192 60.7312 16.36C60.4757 17.528 58.7967 15.995 58.0667 14.3525C57.3367 12.71 57.5192 17.5645 57.5192 17.5645C57.5192 17.5645 55.4387 14.827 54.6722 12.8195C53.8692 10.812 48.1022 13.9875 47.6642 14.462C47.2262 14.9365 48.8322 20.0465 48.8322 19.864C48.8322 19.6815 46.0947 17.674 45.4742 16.1045C44.8537 14.535 45.1822 19.6815 45.7662 21.2875C46.4232 22.857 41.9337 16.652 41.6052 17.017Z" fill="url(#paint61_linear)"/>
<path d="M75.3678 13.002C75.0758 13.002 76.7183 18.769 76.7183 21.9445C76.7183 25.12 76.0613 27.31 76.2438 28.1495C76.4263 28.989 78.8718 25.9595 79.2368 21.689C79.6018 17.4185 76.4263 13.002 75.3678 13.002Z" fill="url(#paint62_linear)"/>
<path d="M84.1277 15.8489C83.8722 15.8489 84.0547 20.5209 83.6532 23.4409C83.2517 26.3609 81.8282 28.3684 82.0837 28.7334C82.3392 29.0984 85.2957 26.7259 85.8067 22.8934C86.2812 19.0974 84.7482 15.8489 84.1277 15.8489Z" fill="url(#paint63_linear)"/>
<path d="M91.0262 17.8201C90.7342 17.8201 90.7707 23.4046 90.2232 26.1056C89.6757 28.8066 88.3982 29.6826 88.8727 30.4856C89.3472 31.2886 96.2822 29.3906 97.4502 24.9376C98.6182 20.4846 97.6327 18.9151 97.0122 18.9151C96.3917 18.9151 95.9902 23.0396 93.2892 25.9596C93.3257 25.9596 94.2382 17.9296 91.0262 17.8201Z" fill="url(#paint64_linear)"/>
<path d="M36.0938 23.2949C35.2908 21.9079 38.5758 30.8869 43.3208 33.2229C48.0658 35.5589 40.2913 30.3394 36.0938 23.2949Z" fill="url(#paint65_linear)"/>
<path d="M31.6408 28.1494C30.6188 26.8719 34.5608 33.4419 36.2763 33.4419C37.9553 33.4419 34.3053 31.5439 31.6408 28.1494Z" fill="url(#paint66_linear)"/>
<defs>
<linearGradient id="paint0_linear" x1="63.0515" y1="152.35" x2="68.1371" y2="197.504" gradientUnits="userSpaceOnUse">
<stop offset="0.0974359" stop-color="#D25A60"/>
<stop offset="1" stop-color="#750937"/>
</linearGradient>
<linearGradient id="paint1_linear" x1="6.69543" y1="167.92" x2="7.86994" y2="176.435" gradientUnits="userSpaceOnUse">
<stop stop-color="#3B5E5D"/>
<stop offset="0.9897" stop-color="#1B4143"/>
</linearGradient>
<linearGradient id="paint2_linear" x1="69.4137" y1="164.347" x2="73.2902" y2="192.452" gradientUnits="userSpaceOnUse">
<stop stop-color="#3B5E5D"/>
<stop offset="0.9897" stop-color="#1B4143"/>
</linearGradient>
<linearGradient id="paint3_linear" x1="25.4802" y1="161.492" x2="28.9525" y2="192.135" gradientUnits="userSpaceOnUse">
<stop stop-color="#3B5E5D"/>
<stop offset="0.9897" stop-color="#1B4143"/>
</linearGradient>
<linearGradient id="paint4_linear" x1="19.0343" y1="162.269" x2="20.7888" y2="177.752" gradientUnits="userSpaceOnUse">
<stop stop-color="#3B5E5D"/>
<stop offset="0.9897" stop-color="#1B4143"/>
</linearGradient>
<linearGradient id="paint5_linear" x1="93.0348" y1="162.193" x2="96.5272" y2="187.513" gradientUnits="userSpaceOnUse">
<stop stop-color="#3B5E5D"/>
<stop offset="0.9897" stop-color="#1B4143"/>
</linearGradient>
<linearGradient id="paint6_linear" x1="71.1333" y1="137.323" x2="61.7324" y2="180.222" gradientUnits="userSpaceOnUse">
<stop stop-color="white"/>
<stop offset="0.9897" stop-color="#8BC8D5" stop-opacity="0"/>
</linearGradient>
<linearGradient id="paint7_linear" x1="52.5763" y1="155.828" x2="52.5763" y2="208.053" gradientUnits="userSpaceOnUse">
<stop offset="0.1128" stop-color="#7A4927" stop-opacity="0"/>
<stop offset="1"/>
</linearGradient>
<linearGradient id="paint8_linear" x1="80.7933" y1="203.879" x2="77.63" y2="157.646" gradientUnits="userSpaceOnUse">
<stop offset="0.1128" stop-color="#7A4927" stop-opacity="0"/>
<stop offset="1"/>
</linearGradient>
<linearGradient id="paint9_linear" x1="89.7508" y1="187.998" x2="85.6941" y2="194.298" gradientUnits="userSpaceOnUse">
<stop offset="0.1538" stop-color="#7A4927"/>
<stop offset="1" stop-color="#130F0F"/>
</linearGradient>
<linearGradient id="paint10_linear" x1="76.677" y1="152.077" x2="73.5137" y2="178.843" gradientUnits="userSpaceOnUse">
<stop stop-color="#3B5E5D"/>
<stop offset="0.9897" stop-color="#1B4143"/>
</linearGradient>
<linearGradient id="paint11_linear" x1="79.2745" y1="118.083" x2="76.7195" y2="142.538" gradientUnits="userSpaceOnUse">
<stop stop-color="#3B5E5D"/>
<stop offset="0.9897" stop-color="#002223"/>
</linearGradient>
<linearGradient id="paint12_linear" x1="75.5238" y1="130.865" x2="74.7938" y2="163.715" gradientUnits="userSpaceOnUse">
<stop stop-color="white"/>
<stop offset="0.9897" stop-color="#8BC8D5" stop-opacity="0"/>
</linearGradient>
<linearGradient id="paint13_linear" x1="65.8357" y1="153.96" x2="71.8582" y2="207.432" gradientUnits="userSpaceOnUse">
<stop offset="0.0974359" stop-color="#D25A60"/>
<stop offset="1" stop-color="#750937"/>
</linearGradient>
<linearGradient id="paint14_linear" x1="56.9938" y1="168.556" x2="72.9772" y2="168.556" gradientUnits="userSpaceOnUse">
<stop offset="0.0974359" stop-color="#D25A60"/>
<stop offset="1" stop-color="#750937"/>
</linearGradient>
<linearGradient id="paint15_linear" x1="91.1914" y1="151.104" x2="97.2139" y2="204.577" gradientUnits="userSpaceOnUse">
<stop offset="0.0974359" stop-color="#D25A60"/>
<stop offset="1" stop-color="#750937"/>
</linearGradient>
<linearGradient id="paint16_linear" x1="93.9024" y1="150.799" x2="99.925" y2="204.271" gradientUnits="userSpaceOnUse">
<stop offset="0.0974359" stop-color="#D25A60"/>
<stop offset="1" stop-color="#750937"/>
</linearGradient>
<linearGradient id="paint17_linear" x1="95.8891" y1="133.776" x2="51.8459" y2="160.543" gradientUnits="userSpaceOnUse">
<stop stop-color="#EBC9B0"/>
<stop offset="1" stop-color="#DD9A6E"/>
</linearGradient>
<linearGradient id="paint18_linear" x1="69.8847" y1="143.538" x2="91.6631" y2="129.303" gradientUnits="userSpaceOnUse">
<stop stop-color="#F1D3C0" stop-opacity="0"/>
<stop offset="1" stop-color="white"/>
</linearGradient>
<linearGradient id="paint19_linear" x1="69.8424" y1="147.671" x2="71.9108" y2="111.171" gradientUnits="userSpaceOnUse">
<stop stop-color="#BF9474" stop-opacity="0"/>
<stop offset="1" stop-color="#B16C3E"/>
</linearGradient>
<linearGradient id="paint20_linear" x1="68.0196" y1="147.568" x2="70.0879" y2="111.068" gradientUnits="userSpaceOnUse">
<stop stop-color="#BF9474" stop-opacity="0"/>
<stop offset="1" stop-color="#B16C3E"/>
</linearGradient>
<linearGradient id="paint21_linear" x1="84.5531" y1="141.746" x2="61.5581" y2="181.166" gradientUnits="userSpaceOnUse">
<stop stop-color="#BF9474" stop-opacity="0"/>
<stop offset="1" stop-color="#B16C3E"/>
</linearGradient>
<linearGradient id="paint22_linear" x1="90.1893" y1="133.695" x2="83.421" y2="195.323" gradientUnits="userSpaceOnUse">
<stop offset="0.1538" stop-color="#7A4927"/>
<stop offset="1" stop-color="#130F0F"/>
</linearGradient>
<linearGradient id="paint23_linear" x1="29.1047" y1="76.0525" x2="44.7943" y2="76.0525" gradientUnits="userSpaceOnUse">
<stop stop-color="#EBC9B0"/>
<stop offset="1" stop-color="#DD9A6E"/>
</linearGradient>
<linearGradient id="paint24_linear" x1="35.1307" y1="73.716" x2="40.4447" y2="69.1541" gradientUnits="userSpaceOnUse">
<stop stop-color="#BF9474" stop-opacity="0"/>
<stop offset="1" stop-color="#B16C3E"/>
</linearGradient>
<linearGradient id="paint25_linear" x1="40.3487" y1="74.0279" x2="32.1737" y2="83.7238" gradientUnits="userSpaceOnUse">
<stop stop-color="#F1D3C0" stop-opacity="0"/>
<stop offset="1" stop-color="white"/>
</linearGradient>
<linearGradient id="paint26_linear" x1="38.7142" y1="88.9386" x2="41.7421" y2="83.4418" gradientUnits="userSpaceOnUse">
<stop offset="0.1538" stop-color="#7A4927"/>
<stop offset="1" stop-color="#130F0F"/>
</linearGradient>
<linearGradient id="paint27_linear" x1="113.808" y1="76.0525" x2="98.1181" y2="76.0525" gradientUnits="userSpaceOnUse">
<stop stop-color="#EBC9B0"/>
<stop offset="1" stop-color="#DD9A6E"/>
</linearGradient>
<linearGradient id="paint28_linear" x1="107.782" y1="73.716" x2="102.468" y2="69.1541" gradientUnits="userSpaceOnUse">
<stop stop-color="#BF9474" stop-opacity="0"/>
<stop offset="1" stop-color="#B16C3E"/>
</linearGradient>
<linearGradient id="paint29_linear" x1="102.564" y1="74.0279" x2="110.739" y2="83.7238" gradientUnits="userSpaceOnUse">
<stop stop-color="#F1D3C0" stop-opacity="0"/>
<stop offset="1" stop-color="white"/>
</linearGradient>
<linearGradient id="paint30_linear" x1="95.2884" y1="61.4243" x2="17.4218" y2="101.574" gradientUnits="userSpaceOnUse">
<stop stop-color="#EBC9B0"/>
<stop offset="1" stop-color="#DD9A6E"/>
</linearGradient>
<linearGradient id="paint31_linear" x1="78.1294" y1="76.3352" x2="101.489" y2="76.5177" gradientUnits="userSpaceOnUse">
<stop stop-color="#F1D3C0" stop-opacity="0"/>
<stop offset="1" stop-color="white"/>
</linearGradient>
<linearGradient id="paint32_linear" x1="61.7267" y1="76.4798" x2="40.5567" y2="82.5023" gradientUnits="userSpaceOnUse">
<stop stop-color="#BF9474" stop-opacity="0"/>
<stop offset="1" stop-color="#B16C3E"/>
</linearGradient>
<linearGradient id="paint33_linear" x1="56.1865" y1="70.0308" x2="42.0731" y2="74.0458" gradientUnits="userSpaceOnUse">
<stop stop-color="#BF9474" stop-opacity="0"/>
<stop offset="1" stop-color="#B16C3E"/>
</linearGradient>
<linearGradient id="paint34_linear" x1="70.3326" y1="76.2442" x2="90.7726" y2="138.538" gradientUnits="userSpaceOnUse">
<stop offset="0.1538" stop-color="#7A4927"/>
<stop offset="1" stop-color="#130F0F"/>
</linearGradient>
<linearGradient id="paint35_linear" x1="113.18" y1="105.706" x2="88.5429" y2="96.2157" gradientUnits="userSpaceOnUse">
<stop offset="0.1538" stop-color="#ECC3A5"/>
<stop offset="1" stop-color="#ECC3A5" stop-opacity="0"/>
</linearGradient>
<linearGradient id="paint36_linear" x1="34.6227" y1="93.7933" x2="61.1461" y2="87.8316" gradientUnits="userSpaceOnUse">
<stop offset="0.1128" stop-color="#7A4927" stop-opacity="0"/>
<stop offset="1"/>
</linearGradient>
<linearGradient id="paint37_linear" x1="50.7642" y1="53.2066" x2="51.7375" y2="64.8866" gradientUnits="userSpaceOnUse">
<stop offset="0.1538" stop-color="#7A4927"/>
<stop offset="1" stop-color="#130F0F"/>
</linearGradient>
<linearGradient id="paint38_linear" x1="59.6231" y1="66.0011" x2="53.1139" y2="57.3019" gradientUnits="userSpaceOnUse">
<stop offset="0.1128" stop-color="#7A4927" stop-opacity="0"/>
<stop offset="1"/>
</linearGradient>
<linearGradient id="paint39_linear" x1="56.7363" y1="72.8928" x2="56.7363" y2="66.3524" gradientUnits="userSpaceOnUse">
<stop offset="0.1538" stop-color="#7A4927"/>
<stop offset="1" stop-color="#130F0F"/>
</linearGradient>
<linearGradient id="paint40_linear" x1="56.7363" y1="73.3033" x2="56.7363" y2="67.6127" gradientUnits="userSpaceOnUse">
<stop offset="0.1128" stop-color="#7A4927" stop-opacity="0"/>
<stop offset="1"/>
</linearGradient>
<linearGradient id="paint41_linear" x1="56.2611" y1="70.6856" x2="56.5349" y2="62.2449" gradientUnits="userSpaceOnUse">
<stop offset="0.1128" stop-color="#7A4927" stop-opacity="0"/>
<stop offset="1"/>
</linearGradient>
<linearGradient id="paint42_linear" x1="55.5164" y1="48.432" x2="55.7901" y2="66.9558" gradientUnits="userSpaceOnUse">
<stop offset="0.1538" stop-color="#7A4927"/>
<stop offset="1" stop-color="#130F0F"/>
</linearGradient>
<linearGradient id="paint43_linear" x1="90.5665" y1="52.8416" x2="89.5932" y2="64.5216" gradientUnits="userSpaceOnUse">
<stop offset="0.1538" stop-color="#7A4927"/>
<stop offset="1" stop-color="#130F0F"/>
</linearGradient>
<linearGradient id="paint44_linear" x1="81.7077" y1="65.6361" x2="88.2168" y2="56.9369" gradientUnits="userSpaceOnUse">
<stop offset="0.1128" stop-color="#7A4927" stop-opacity="0"/>
<stop offset="1"/>
</linearGradient>
<linearGradient id="paint45_linear" x1="85.8415" y1="72.5278" x2="85.8415" y2="65.9874" gradientUnits="userSpaceOnUse">
<stop offset="0.1538" stop-color="#7A4927"/>
<stop offset="1" stop-color="#130F0F"/>
</linearGradient>
<linearGradient id="paint46_linear" x1="85.8414" y1="72.9383" x2="85.8414" y2="67.2477" gradientUnits="userSpaceOnUse">
<stop offset="0.1128" stop-color="#7A4927" stop-opacity="0"/>
<stop offset="1"/>
</linearGradient>
<linearGradient id="paint47_linear" x1="86.3165" y1="70.3205" x2="86.0428" y2="61.88" gradientUnits="userSpaceOnUse">
<stop offset="0.1128" stop-color="#7A4927" stop-opacity="0"/>
<stop offset="1"/>
</linearGradient>
<linearGradient id="paint48_linear" x1="87.0615" y1="48.0671" x2="86.7877" y2="66.5908" gradientUnits="userSpaceOnUse">
<stop offset="0.1538" stop-color="#7A4927"/>
<stop offset="1" stop-color="#130F0F"/>
</linearGradient>
<linearGradient id="paint49_linear" x1="66.1016" y1="1.03618" x2="73.2105" y2="78.5891" gradientUnits="userSpaceOnUse">
<stop offset="0.1538" stop-color="#7A4927"/>
<stop offset="1" stop-color="#130F0F"/>
</linearGradient>
<linearGradient id="paint50_linear" x1="69.3356" y1="-9.60559" x2="68.0581" y2="60.8394" gradientUnits="userSpaceOnUse">
<stop offset="0.1128" stop-color="#7A4927" stop-opacity="0"/>
<stop offset="1"/>
</linearGradient>
<linearGradient id="paint51_linear" x1="42.5474" y1="-26.3147" x2="36.5249" y2="65.3004" gradientUnits="userSpaceOnUse">
<stop offset="0.1128" stop-color="#7A4927" stop-opacity="0"/>
<stop offset="1"/>
</linearGradient>
<linearGradient id="paint52_linear" x1="105.812" y1="28.5322" x2="101.432" y2="52.896" gradientUnits="userSpaceOnUse">
<stop offset="0.1538" stop-color="#ECC3A5"/>
<stop offset="1" stop-color="#ECC3A5" stop-opacity="0"/>
</linearGradient>
<linearGradient id="paint53_linear" x1="94.9554" y1="55.7452" x2="105.986" y2="55.7452" gradientUnits="userSpaceOnUse">
<stop offset="0.1538" stop-color="#ECC3A5"/>
<stop offset="1" stop-color="#ECC3A5" stop-opacity="0"/>
</linearGradient>
<linearGradient id="paint54_linear" x1="106.265" y1="-22.1262" x2="100.243" y2="69.4888" gradientUnits="userSpaceOnUse">
<stop offset="0.1128" stop-color="#7A4927" stop-opacity="0"/>
<stop offset="1"/>
</linearGradient>
<linearGradient id="paint55_linear" x1="34.1084" y1="27.2867" x2="36.7851" y2="56.4867" gradientUnits="userSpaceOnUse">
<stop offset="0.1538" stop-color="#ECC3A5"/>
<stop offset="1" stop-color="#ECC3A5" stop-opacity="0"/>
</linearGradient>
<linearGradient id="paint56_linear" x1="44.0822" y1="0.174164" x2="51.7472" y2="17.9984" gradientUnits="userSpaceOnUse">
<stop offset="0.1538" stop-color="#ECC3A5"/>
<stop offset="1" stop-color="#ECC3A5" stop-opacity="0"/>
</linearGradient>
<linearGradient id="paint57_linear" x1="74.808" y1="-4.86207" x2="74.6863" y2="12.7796" gradientUnits="userSpaceOnUse">
<stop offset="0.1538" stop-color="#ECC3A5"/>
<stop offset="1" stop-color="#ECC3A5" stop-opacity="0"/>
</linearGradient>
<linearGradient id="paint58_linear" x1="81.617" y1="-4.81514" x2="81.4954" y2="12.8265" gradientUnits="userSpaceOnUse">
<stop offset="0.1538" stop-color="#ECC3A5"/>
<stop offset="1" stop-color="#ECC3A5" stop-opacity="0"/>
</linearGradient>
<linearGradient id="paint59_linear" x1="87.6634" y1="-4.77349" x2="87.5417" y2="12.8682" gradientUnits="userSpaceOnUse">
<stop offset="0.1538" stop-color="#ECC3A5"/>
<stop offset="1" stop-color="#ECC3A5" stop-opacity="0"/>
</linearGradient>
<linearGradient id="paint60_linear" x1="103.944" y1="1.29007" x2="99.0775" y2="17.1067" gradientUnits="userSpaceOnUse">
<stop offset="0.1538" stop-color="#ECC3A5"/>
<stop offset="1" stop-color="#ECC3A5" stop-opacity="0"/>
</linearGradient>
<linearGradient id="paint61_linear" x1="50.393" y1="4.7692" x2="59.2138" y2="32.57" gradientUnits="userSpaceOnUse">
<stop offset="0.1538" stop-color="#ECC3A5"/>
<stop offset="1" stop-color="#ECC3A5" stop-opacity="0"/>
</linearGradient>
<linearGradient id="paint62_linear" x1="79.156" y1="3.09472" x2="75.3843" y2="31.9297" gradientUnits="userSpaceOnUse">
<stop offset="0.1538" stop-color="#ECC3A5"/>
<stop offset="1" stop-color="#ECC3A5" stop-opacity="0"/>
</linearGradient>
<linearGradient id="paint63_linear" x1="86.7499" y1="4.08796" x2="82.9782" y2="32.9229" gradientUnits="userSpaceOnUse">
<stop offset="0.1538" stop-color="#ECC3A5"/>
<stop offset="1" stop-color="#ECC3A5" stop-opacity="0"/>
</linearGradient>
<linearGradient id="paint64_linear" x1="99.7595" y1="7.88958" x2="90.087" y2="31.5538" gradientUnits="userSpaceOnUse">
<stop offset="0.1538" stop-color="#ECC3A5"/>
<stop offset="1" stop-color="#ECC3A5" stop-opacity="0"/>
</linearGradient>
<linearGradient id="paint65_linear" x1="33.4827" y1="15.6515" x2="45.2083" y2="37.8253" gradientUnits="userSpaceOnUse">
<stop offset="0.1538" stop-color="#ECC3A5"/>
<stop offset="1" stop-color="#ECC3A5" stop-opacity="0"/>
</linearGradient>
<linearGradient id="paint66_linear" x1="27.7715" y1="18.6716" x2="39.4972" y2="40.8454" gradientUnits="userSpaceOnUse">
<stop offset="0.1538" stop-color="#ECC3A5"/>
<stop offset="1" stop-color="#ECC3A5" stop-opacity="0"/>
</linearGradient>
</defs>
</svg>
